# xmcd CD database file
#
# Track frame offsets:
#	150
#	30739
#	64371
#	82952
#	111199
#	142780
#	171605
#
# Disc length: 2725 seconds
#
# Revision: 0
# Processed by: cddbd v1.5.2PL0 Copyright (c) Steve Scherf et al.
# Submitted via: CDex 1.70beta2
#
DISCID=5c0aa307
DTITLE=Horace Silver - Soulville
DYEAR=1900
DGENRE=Jazz
TTITLE0=doodlin´
TTITLE1=creepin´ in
TTITLE2=stop time
TTITLE3=soulville
TTITLE4=my one and only love
TTITLE5=the back beat
TTITLE6=metamorphosis
EXTD=
EXTT0=
EXTT1=
EXTT2=
EXTT3=
EXTT4=
EXTT5=
EXTT6=
PLAYORDER=
